<svg width="499" height="99" viewBox="0 0 499 99" fill="none" xmlns="http://www.w3.org/2000/svg">
<path d="M218.198 96.737C217.525 96.737 216.93 96.6207 216.413 96.388C216.327 96.3492 216.239 96.3142 216.152 96.276C215.694 96.074 215.465 95.6812 215.465 95.0974C215.465 94.4598 215.738 93.9588 216.285 93.5944C216.922 93.2301 217.697 92.9113 218.607 92.638C219.883 92.1825 221.112 91.6816 222.297 91.135C223.572 90.4974 224.209 89.2677 224.209 87.4459V57.3864C224.209 55.1092 223.936 53.1507 223.39 51.5111C222.843 49.7804 221.522 48.7329 219.427 48.3685C219.063 48.2774 218.744 48.0953 218.471 47.822C218.198 47.5487 218.061 47.0933 218.061 46.4557C218.061 45.3626 218.471 44.725 219.291 44.5428C221.659 43.9052 223.754 43.222 225.576 42.4933C227.398 41.7645 229.083 40.9903 230.631 40.1705C232.18 39.2596 233.819 38.3031 235.55 37.3012C235.732 37.2101 235.914 37.119 236.097 37.0279C236.37 36.8457 236.643 36.7546 236.916 36.7546C237.554 36.7546 237.873 37.119 237.873 37.8477C237.873 38.5764 237.736 39.8972 237.463 41.8101C237.281 43.6319 237.19 45.1804 237.19 46.4557C237.19 47.225 237.255 47.7344 237.385 47.9839C237.425 48.0615 237.512 48.0953 237.6 48.0953V48.0953C237.687 48.0953 237.771 48.0606 237.833 47.999C240.093 45.759 242.885 43.696 246.208 41.8101C249.669 39.8972 253.813 38.9408 258.641 38.9408C261.738 38.9408 264.425 39.7606 266.703 41.4002C268.927 42.9128 270.717 45.2945 272.072 48.5453C272.131 48.6857 272.268 48.7784 272.42 48.7784V48.7784C272.521 48.7784 272.618 48.7373 272.688 48.665C275.486 45.8021 278.683 43.4716 282.279 41.6735C285.922 39.8517 289.93 38.9408 294.303 38.9408C297.309 38.9408 299.859 39.8061 301.954 41.5368C304.049 43.2675 305.643 45.5903 306.736 48.5052C307.921 51.42 308.513 54.6082 308.513 58.0696V87.5825C308.513 89.4043 309.105 90.5885 310.289 91.135C311.473 91.6816 312.748 92.1825 314.115 92.638C315.026 92.9113 315.754 93.2301 316.301 93.5944C316.847 93.9588 317.121 94.4598 317.121 95.0974C317.121 95.6439 316.893 96.0538 316.437 96.3271C316.073 96.6004 315.435 96.737 314.525 96.737C312.703 96.737 311.2 96.6459 310.016 96.4637C308.831 96.3727 307.693 96.2816 306.6 96.1905C305.507 96.0994 304.14 96.0538 302.501 96.0538C300.952 96.0538 299.586 96.0994 298.402 96.1905C297.309 96.2816 296.17 96.3727 294.986 96.4637C293.802 96.6459 292.299 96.737 290.477 96.737C289.748 96.737 289.111 96.6004 288.564 96.3271C288.109 96.0538 287.881 95.6439 287.881 95.0974C287.881 94.3687 288.154 93.8677 288.701 93.5944C289.247 93.2301 289.976 92.9113 290.887 92.638C292.253 92.2736 293.437 91.8182 294.439 91.2717C295.441 90.634 295.942 89.4954 295.942 87.8558V59.2993C295.942 57.1131 295.487 55.1091 294.576 53.2874C293.756 51.3745 292.618 49.8715 291.16 48.7784C289.703 47.5943 288.063 47.0022 286.241 47.0022C284.328 47.0022 282.507 47.2755 280.776 47.822C279.045 48.3685 277.36 49.2794 275.721 50.5547C273.625 52.1943 272.578 54.9725 272.578 58.8894V87.5825C272.578 89.4043 273.124 90.634 274.218 91.2717C275.402 91.8182 276.677 92.2736 278.043 92.638C278.863 92.9113 279.546 93.2301 280.093 93.5944C280.73 93.9588 281.049 94.4598 281.049 95.0974C281.049 95.6439 280.821 96.0538 280.366 96.3271C279.911 96.6004 279.273 96.737 278.453 96.737C276.631 96.737 275.128 96.6459 273.944 96.4637C272.76 96.3727 271.621 96.2816 270.528 96.1905C269.435 96.0994 268.069 96.0538 266.429 96.0538C264.881 96.0538 263.515 96.0994 262.33 96.1905C261.237 96.2816 260.099 96.3727 258.914 96.4637C257.73 96.6459 256.227 96.737 254.406 96.737C253.768 96.737 253.176 96.6004 252.629 96.3271C252.083 96.0538 251.81 95.6439 251.81 95.0974C251.81 94.3687 252.128 93.8677 252.766 93.5944C253.404 93.2301 254.087 92.9113 254.815 92.638C256.182 92.2736 257.366 91.8182 258.368 91.2717C259.461 90.634 260.008 89.4954 260.008 87.8558V59.2993C260.008 57.1131 259.552 55.1091 258.641 53.2874C257.821 51.4656 256.683 49.9626 255.225 48.7784C253.768 47.5943 252.128 47.0022 250.307 47.0022C248.485 47.0022 246.663 47.2755 244.841 47.822C243.11 48.3685 241.425 49.2794 239.786 50.5547C237.782 52.0121 236.78 54.7448 236.78 58.7527V87.5825C236.78 89.3132 237.281 90.4974 238.283 91.135C239.285 91.6816 240.469 92.1825 241.835 92.638C242.564 92.9113 243.247 93.2301 243.885 93.5944C244.522 93.8677 244.841 94.3687 244.841 95.0974C244.841 95.6439 244.568 96.0538 244.021 96.3271C243.566 96.6004 242.974 96.737 242.245 96.737C240.423 96.737 238.92 96.6459 237.736 96.4637C236.552 96.3727 235.459 96.2816 234.457 96.1905C233.455 96.0994 232.134 96.0538 230.495 96.0538C228.946 96.0538 227.58 96.0994 226.396 96.1905C225.211 96.2816 223.982 96.3727 222.706 96.4637C221.522 96.6459 220.019 96.737 218.198 96.737Z" fill="white"/>
<path d="M189.923 98.2401C187.008 98.2401 184.23 97.8301 181.588 97.0103C179.177 96.2351 177.05 95.134 175.208 93.7072C174.999 93.5448 174.825 93.3392 174.715 93.0983C174.17 91.9092 173.774 90.1617 173.527 87.8558C173.254 85.3053 173.117 82.9826 173.117 80.8875C173.117 79.9766 173.8 79.5212 175.167 79.5212C175.607 79.5212 175.989 79.61 176.311 79.7876C176.465 79.8724 176.619 79.9584 176.772 80.0442C177.085 80.2199 177.279 80.4554 177.353 80.7509C178.719 85.0321 180.632 88.2658 183.091 90.4519C185.551 92.638 188.238 93.7311 191.153 93.7311C193.703 93.7311 195.798 92.9113 197.438 91.2717C199.078 89.541 199.897 87.4915 199.897 85.1232C199.897 82.6638 199.032 80.6142 197.301 78.9746C195.571 77.2439 192.929 75.2855 189.377 73.0994C186.462 71.3687 183.957 69.6835 181.862 68.0439C179.767 66.3132 178.173 64.4459 177.08 62.4419C175.986 60.3468 175.44 57.9785 175.44 55.3369C175.44 52.1488 176.214 49.325 177.763 46.8656C179.402 44.4062 181.68 42.4478 184.594 40.9903C187.509 39.5329 191.016 38.8042 195.115 38.8042C198.03 38.8042 201.49 39.123 203.494 39.7606C205.387 40.2545 206.797 40.7856 207.723 41.3539C207.911 41.4697 208.071 41.6264 208.19 41.8134C208.833 42.8295 209.363 44.377 209.779 46.4557C210.325 48.7329 210.598 55.0102 210.598 57.2874C210.598 58.0161 210.006 58.3805 208.822 58.3805C208.276 58.3805 207.684 58.2439 207.046 57.9706C206.499 57.6973 206.135 57.333 205.953 56.8775C204.769 53.6894 202.266 48.2755 200.444 46.6359C198.713 44.9963 196.573 44.1765 194.022 44.1765C191.836 44.1765 189.878 44.8597 188.147 46.226C186.416 47.5013 185.551 49.3686 185.551 51.828C185.551 53.9231 186.28 54.7904 187.737 56.43C189.286 57.9785 191.699 59.6637 194.979 61.4855C200.444 64.4914 204.452 67.3607 207.002 70.0934C209.644 72.735 210.965 76.2875 210.965 80.7509C210.965 86.0341 209.052 90.2697 205.226 93.4578C201.492 96.646 196.391 98.2401 189.923 98.2401Z" fill="white"/>
<path d="M130.313 98.2399C128.4 98.2399 126.533 97.6023 124.711 96.327C122.889 95.1428 121.386 93.6399 120.202 91.8181C119.018 89.9052 118.426 88.0379 118.426 86.2161C118.426 83.2101 119.246 80.7963 120.885 78.9745C122.616 77.1527 125.257 75.5131 128.81 74.0556L142.063 68.4536C143.885 67.7249 144.978 67.0873 145.343 66.5408C145.707 65.9031 145.935 64.6734 146.026 62.8516L146.299 54.517C146.39 52.0576 145.798 50.008 144.523 48.3684C143.248 46.7288 141.38 45.909 138.921 45.909C137.646 45.909 136.325 46.1823 134.959 46.7288C133.683 47.1843 132.636 47.7308 131.816 48.3684C131.36 48.7328 131.042 49.2338 130.859 49.8714C130.768 50.509 130.723 51.1922 130.723 51.9209C130.723 52.3289 130.723 52.0076 130.723 52.3944C130.723 52.5046 130.732 52.6151 130.749 52.724C130.823 53.1985 130.859 53.5995 130.859 53.9269C130.859 54.4734 130.222 55.1566 128.947 55.9764C127.762 56.7051 126.351 57.3883 124.711 58.0259C123.162 58.6635 121.842 58.9823 120.749 58.9823C120.316 58.9823 119.941 58.8969 119.623 58.726C119.456 58.6363 119.318 58.4988 119.229 58.3318C119.058 58.0135 118.972 57.6383 118.972 57.2061C118.972 54.4125 122.717 50.4873 124.711 48.7783C126.897 46.8654 129.265 45.1803 131.816 43.7229C134.458 42.1744 137.008 40.9902 139.467 40.1704C142.018 39.3506 144.25 38.9407 146.163 38.9407C149.988 38.9407 153.085 40.2615 155.454 42.9031C157.913 45.4536 159.052 48.7783 158.869 52.8774L158.186 83.7567C158.095 85.7606 158.505 87.4002 159.416 88.6755C160.327 89.9507 161.466 90.5884 162.832 90.5884C164.927 90.5884 165.499 90.0418 166.683 88.9488C167.048 88.5844 167.366 88.4022 167.64 88.4022C168.039 88.4022 168.368 88.5072 168.627 88.717C168.701 88.7766 168.772 88.839 168.843 88.9023C169.134 89.1638 169.279 89.4981 169.279 89.9052C169.279 92.4321 165.493 95.922 163.378 96.8735C161.648 97.7844 159.963 98.2399 158.323 98.2399C153.837 98.2399 150.235 95.8542 147.517 91.0827C147.439 90.9474 147.296 90.8616 147.14 90.8616V90.8616C147.038 90.8616 146.939 90.8981 146.862 90.9636C143.901 93.462 141.117 95.2953 138.511 96.4636C135.869 97.6478 133.137 98.2399 130.313 98.2399ZM137.418 90.8616C138.966 90.8616 140.242 90.6339 141.244 90.1785C142.337 89.6319 143.293 88.9032 144.113 87.9923C144.568 87.5369 144.887 86.9903 145.069 86.3527C145.343 85.624 145.525 84.5309 145.616 83.0735L145.889 75.2853C145.98 74.3744 145.935 73.7368 145.753 73.3725C145.57 72.917 145.206 72.6893 144.66 72.6893C144.477 72.6893 144.204 72.7348 143.84 72.8259C143.475 72.917 142.974 73.0992 142.337 73.3725C138.238 74.921 135.368 76.5606 133.729 78.2913C132.089 79.9309 131.269 81.7527 131.269 83.7567C131.269 86.2161 131.907 88.0379 133.182 89.222C134.549 90.3151 135.96 90.8616 137.418 90.8616Z" fill="white"/>
<path d="M85.0803 96.737C84.4427 96.737 83.8051 96.6459 83.1675 96.4637C82.6209 96.2815 82.3477 95.8716 82.3477 95.234C82.3477 94.5053 82.6665 94.0043 83.3041 93.731C83.9417 93.3666 84.6704 93.0023 85.4902 92.6379C86.8566 92.1825 88.1318 91.6815 89.316 91.135C90.5002 90.5884 91.0922 89.3587 91.0922 87.4458V19.812C91.0922 16.2202 88.7074 12.698 85.0803 11.9726C84.3516 11.7904 83.9873 11.1528 83.9873 10.0597C83.9873 9.0577 84.3061 8.46562 84.9437 8.28345C87.312 7.828 88.4763 7.23592 90.5713 6.5072C94.2213 5.23766 99.0523 2.52297 102.207 0.424141C102.358 0.324056 102.519 0.242949 102.692 0.190493C103.111 0.0634977 103.434 0 103.663 0C103.842 0 103.981 0.0586219 104.082 0.175866C104.198 0.310648 104.265 0.48179 104.342 0.642192C104.436 0.838029 104.482 1.03387 104.482 1.22971C104.482 1.95842 104.346 3.50694 104.072 5.87526C103.799 8.24359 103.663 11.7961 103.663 16.5327V87.4458C103.663 89.2676 104.255 90.4973 105.439 91.135C106.623 91.6815 107.898 92.1825 109.265 92.6379C110.084 92.9112 110.813 93.23 111.451 93.5944C112.088 93.9587 112.407 94.5053 112.407 95.234C112.407 95.7805 112.088 96.1449 111.451 96.3271C110.904 96.5092 110.312 96.6003 109.674 96.6003C107.944 96.6003 106.441 96.5548 105.166 96.4637C103.89 96.3726 102.661 96.2815 101.476 96.1904C100.292 96.0993 98.8804 96.0538 97.2408 96.0538C95.6923 96.0538 94.3259 96.0993 93.1418 96.1904C91.9576 96.2815 90.7734 96.3726 89.5893 96.4637C88.4051 96.6459 86.9021 96.737 85.0803 96.737Z" fill="white"/>
<path d="M3.77452 96.9077C2.70991 96.9077 1.79048 96.7625 1.01622 96.4722C0.338739 96.2786 0 95.8431 0 95.1656C0 93.9074 1.40335 92.988 4.21004 92.4073C7.88777 91.7298 10.5009 90.6652 12.0494 89.2135C13.6947 87.7617 14.5174 85.3422 14.5174 81.9548V19.3849C14.5174 15.32 13.9367 12.2714 12.7753 10.2389C11.7107 8.20651 9.3879 6.85155 5.80695 6.17407C4.25843 5.88372 3.14543 5.4966 2.46795 5.01268C1.79048 4.52877 1.45174 3.94808 1.45174 3.2706C1.45174 2.68991 1.79048 2.25438 2.46795 1.96403C3.24221 1.5769 4.16165 1.38334 5.22625 1.38334C7.7426 1.38334 9.82342 1.43173 11.4687 1.52851C13.114 1.52851 14.7109 1.5769 16.2595 1.67369C17.808 1.77047 19.5501 1.81886 21.4857 1.81886C23.5181 1.81886 25.5022 1.72208 27.4378 1.52851C29.3735 1.33495 31.2607 1.14138 33.0996 0.947822C35.0353 0.754253 36.9709 0.657471 38.9066 0.657471C50.2301 0.657471 59.2793 3.02864 66.0541 7.77099C72.8288 12.5133 76.2162 19.0461 76.2162 27.3694C76.8692 39.7519 70.5564 48.2761 61.6988 53.8338C56.7629 56.834 50.4721 58.3341 42.8263 58.3341C40.6003 58.3341 38.8582 57.9954 37.6 57.3179C36.4386 56.6405 35.8579 55.963 35.8579 55.2855C35.8579 54.7048 36.1483 54.2209 36.729 53.8338C37.3097 53.3498 37.842 53.1079 38.3259 53.1079C39.0033 53.1079 39.7776 53.2047 40.6487 53.3982C41.6165 53.495 42.9714 53.5434 44.7135 53.5434C57.0316 53.5434 60.5375 39.1361 60.5375 29.2567C60.5375 21.127 58.505 15.1748 54.4402 11.4003C50.4721 7.52903 45.2942 5.59338 38.9066 5.59338C36.1967 5.59338 32.019 6.12569 30.3737 7.19029C28.8252 8.15812 28.051 9.80342 28.051 12.1262L27.9058 80.7934C27.9058 84.084 28.68 86.6971 30.2286 88.6328C31.7771 90.4716 34.4386 91.7298 38.2131 92.4073C39.5681 92.6976 40.5843 93.0364 41.2618 93.4235C42.036 93.8106 42.4232 94.3913 42.4232 95.1656C42.4232 95.7463 42.0844 96.1818 41.407 96.4722C40.7295 96.7625 39.81 96.9077 38.6487 96.9077C36.2291 96.9077 34.0515 96.8109 32.1158 96.6173C30.277 96.5205 28.4865 96.4238 26.7444 96.327C25.0991 96.1334 23.357 96.0366 21.5181 96.0366C19.1954 96.0366 18.9694 96.1334 16.8402 96.327C14.8077 96.4238 12.7269 96.5205 10.5977 96.6173C8.56525 96.8109 6.29086 96.9077 3.77452 96.9077Z" fill="white"/>
<path fill-rule="evenodd" clip-rule="evenodd" d="M397.793 96.276C397.879 96.3142 397.967 96.3492 398.054 96.388C398.571 96.6207 399.166 96.737 399.838 96.737C401.66 96.737 403.163 96.6459 404.347 96.4637C405.622 96.3727 406.852 96.2816 408.036 96.1905C409.22 96.0994 410.587 96.0538 412.135 96.0538C413.775 96.0538 415.096 96.0994 416.098 96.1905C417.1 96.2816 418.193 96.3727 419.377 96.4637C420.561 96.6459 422.064 96.737 423.886 96.737C424.614 96.737 425.207 96.6004 425.662 96.3271C426.209 96.0538 426.482 95.6439 426.482 95.0974C426.482 94.3687 426.163 93.8677 425.525 93.5944C424.888 93.2301 424.205 92.9113 423.476 92.638C422.11 92.1825 420.925 91.6816 419.923 91.135C418.921 90.4974 418.42 89.3132 418.42 87.5825V74.978C418.42 73.8735 417.525 72.978 416.42 72.978H407.85C406.745 72.978 405.85 73.8735 405.85 74.978V87.4459C405.85 89.2677 405.212 90.4974 403.937 91.135C402.753 91.6816 401.523 92.1825 400.248 92.638C399.337 92.9113 398.563 93.2301 397.925 93.5944C397.379 93.9588 397.105 94.4598 397.105 95.0974C397.105 95.6812 397.335 96.074 397.793 96.276ZM405.85 57.3864C405.85 57.7131 406.115 57.978 406.442 57.978H416.501C417.579 57.978 418.445 57.1202 418.598 56.0533C418.967 53.4903 419.91 51.6574 421.426 50.5547C423.066 49.2794 424.751 48.3685 426.482 47.822C428.304 47.2755 430.125 47.0022 431.947 47.0022C433.769 47.0022 435.409 47.5943 436.866 48.7784C438.323 49.9626 439.462 51.4656 440.282 53.2874C440.739 54.2023 441.082 55.1633 441.31 56.1701C441.538 57.1809 442.385 57.978 443.422 57.978H452.325C453.395 57.978 454.257 57.1313 454.429 56.0753C454.831 53.6099 455.809 51.7697 457.361 50.5547C459.001 49.2794 460.686 48.3685 462.417 47.822C464.147 47.2755 465.969 47.0022 467.882 47.0022C469.704 47.0022 471.343 47.5943 472.801 48.7784C474.258 49.8715 475.397 51.3745 476.217 53.2874C477.128 55.1091 477.583 57.1131 477.583 59.2993V87.8558C477.583 89.4954 477.082 90.634 476.08 91.2717C475.078 91.8182 473.894 92.2736 472.528 92.638C471.617 92.9113 470.888 93.2301 470.341 93.5944C469.795 93.8677 469.522 94.3687 469.522 95.0974C469.522 95.6439 469.749 96.0538 470.205 96.3271C470.751 96.6004 471.389 96.737 472.118 96.737C473.939 96.737 475.442 96.6459 476.627 96.4637C477.811 96.3727 478.949 96.2816 480.042 96.1905C481.227 96.0994 482.593 96.0538 484.141 96.0538C485.781 96.0538 487.147 96.0994 488.24 96.1905C489.333 96.2816 490.472 96.3727 491.656 96.4637C492.84 96.6459 494.343 96.737 496.165 96.737C497.076 96.737 497.714 96.6004 498.078 96.3271C498.534 96.0538 498.761 95.6439 498.761 95.0974C498.761 94.4598 498.488 93.9588 497.941 93.5944C497.395 93.2301 496.666 92.9113 495.755 92.638C494.389 92.1825 493.114 91.6816 491.93 91.135C490.745 90.5885 490.153 89.4043 490.153 87.5825V58.0696C490.153 54.6082 489.561 51.42 488.377 48.5052C487.284 45.5903 485.69 43.2675 483.595 41.5368C481.5 39.8061 478.949 38.9408 475.943 38.9408C471.571 38.9408 467.563 39.8517 463.92 41.6735C460.323 43.4716 457.126 45.8021 454.329 48.665C454.258 48.7373 454.161 48.7784 454.06 48.7784V48.7784C453.908 48.7784 453.771 48.6857 453.713 48.5453C452.357 45.2945 450.568 42.9128 448.343 41.4002C446.066 39.7606 443.379 38.9408 440.282 38.9408C435.454 38.9408 431.31 39.8972 427.848 41.8101C424.525 43.696 421.734 45.759 419.474 47.999C419.411 48.0606 419.328 48.0953 419.24 48.0953V48.0953C419.153 48.0953 419.066 48.0615 419.025 47.9839C418.895 47.7344 418.83 47.225 418.83 46.4557C418.83 45.1804 418.921 43.6319 419.104 41.8101C419.377 39.8972 419.513 38.5764 419.513 37.8477C419.513 37.119 419.195 36.7546 418.557 36.7546C418.284 36.7546 418.01 36.8457 417.737 37.0279L417.191 37.3012C415.46 38.3031 413.82 39.2596 412.272 40.1705C410.723 40.9903 409.038 41.7645 407.216 42.4933C405.395 43.222 403.3 43.9052 400.931 44.5428C400.111 44.725 399.702 45.3626 399.702 46.4557C399.702 47.0933 399.838 47.5487 400.111 47.822C400.385 48.0953 400.704 48.2774 401.068 48.3685C403.163 48.7329 404.484 49.7804 405.03 51.5111C405.577 53.1507 405.85 55.1092 405.85 57.3864V57.3864ZM454.219 74.978C454.219 73.8735 453.323 72.978 452.219 72.978H443.648C442.544 72.978 441.648 73.8735 441.648 74.978V87.8558C441.648 89.4954 441.102 90.634 440.009 91.2717C439.007 91.8182 437.822 92.2736 436.456 92.638C435.727 92.9113 435.044 93.2301 434.407 93.5944C433.769 93.8677 433.45 94.3687 433.45 95.0974C433.45 95.6439 433.723 96.0538 434.27 96.3271C434.816 96.6004 435.409 96.737 436.046 96.737C437.868 96.737 439.371 96.6459 440.555 96.4637C441.739 96.3727 442.878 96.2816 443.971 96.1905C445.155 96.0994 446.521 96.0538 448.07 96.0538C449.71 96.0538 451.076 96.0994 452.169 96.1905C453.262 96.2816 454.401 96.3727 455.585 96.4637C456.769 96.6459 458.272 96.737 460.094 96.737C460.914 96.737 461.551 96.6004 462.007 96.3271C462.462 96.0538 462.69 95.6439 462.69 95.0974C462.69 94.4598 462.371 93.9588 461.733 93.5944C461.187 93.2301 460.504 92.9113 459.684 92.638C458.318 92.2736 457.042 91.8182 455.858 91.2717C454.765 90.634 454.219 89.4043 454.219 87.5825V74.978Z" fill="white"/>
<path fill-rule="evenodd" clip-rule="evenodd" d="M364.296 97.0103C366.937 97.8301 369.715 98.2401 372.63 98.2401C379.098 98.2401 384.199 96.646 387.933 93.4578C391.759 90.2697 393.672 86.0341 393.672 80.7509C393.672 78.2214 393.248 75.9844 392.399 74.04C392.107 73.371 391.424 72.978 390.694 72.978H372.117C372.051 72.978 372.027 73.0654 372.084 73.0994V73.0994C375.636 75.2855 378.278 77.2439 380.008 78.9746C381.739 80.6142 382.604 82.6638 382.604 85.1232C382.604 87.4915 381.785 89.541 380.145 91.2717C378.505 92.9113 376.41 93.7311 373.86 93.7311C370.945 93.7311 368.258 92.6381 365.799 90.4519C363.339 88.2658 361.426 85.0321 360.06 80.7509C359.986 80.4554 359.792 80.2199 359.479 80.0442C359.326 79.9584 359.172 79.8724 359.018 79.7876C358.696 79.61 358.314 79.5212 357.874 79.5212C356.507 79.5212 355.824 79.9766 355.824 80.8875C355.824 82.9826 355.961 85.3053 356.234 87.8558C356.481 90.1617 356.877 91.9092 357.422 93.0983C357.532 93.3392 357.706 93.5448 357.915 93.7072C359.757 95.134 361.884 96.2351 364.296 97.0103ZM370.444 56.43C370.988 56.9742 370.633 57.978 369.863 57.978H360.058C359.071 57.978 358.22 57.2577 358.17 56.2719C358.155 55.9642 358.147 55.6525 358.147 55.3369C358.147 52.1488 358.921 49.325 360.47 46.8656C362.109 44.4062 364.387 42.4478 367.301 40.9903C370.216 39.5329 373.723 38.8042 377.822 38.8042C380.737 38.8042 384.197 39.123 386.201 39.7606C388.094 40.2545 389.504 40.7856 390.43 41.3539C390.618 41.4697 390.778 41.6264 390.897 41.8134C391.54 42.8295 392.07 44.377 392.486 46.4557C393.032 48.7329 393.306 55.0102 393.306 57.2874V57.2874C393.306 57.7787 392.757 57.978 392.266 57.978H389.789C389.777 57.978 389.764 57.9755 389.753 57.9706V57.9706C389.206 57.6973 388.842 57.333 388.66 56.8775C387.476 53.6894 384.973 48.2755 383.151 46.6359C381.42 44.9963 379.28 44.1765 376.729 44.1765C374.543 44.1765 372.585 44.8597 370.854 46.226C369.123 47.5013 368.258 49.3686 368.258 51.828C368.258 53.9231 368.987 54.7904 370.444 56.43V56.43Z" fill="white"/>
<path fill-rule="evenodd" clip-rule="evenodd" d="M323.461 96.3271C324.007 96.6004 324.645 96.737 325.373 96.737C327.195 96.737 328.698 96.6459 329.882 96.4637L333.708 96.1905C334.983 96.0994 336.395 96.0538 337.944 96.0538C339.583 96.0538 340.995 96.0994 342.179 96.1905C343.455 96.2816 344.775 96.3727 346.142 96.4637C347.508 96.6459 349.057 96.737 350.787 96.737C352.427 96.737 353.247 96.1905 353.247 95.0974C353.247 94.4347 352.983 93.9603 352.456 93.6742C352.348 93.616 352.24 93.5594 352.136 93.4953C351.625 93.1801 351.038 92.9399 350.377 92.7746C348.282 92.2281 346.734 91.5905 345.732 90.8617C344.73 90.133 344.229 89.04 344.229 87.5825V74.978C344.229 73.8734 343.333 72.978 342.229 72.978H333.795C332.691 72.978 331.795 73.8734 331.795 74.978V87.5825C331.795 89.2221 331.294 90.3607 330.292 90.9984C329.29 91.636 327.742 92.2281 325.647 92.7746C324.918 92.9568 324.235 93.2301 323.597 93.5944C323.051 93.8677 322.777 94.3687 322.777 95.0974C322.777 95.6439 323.005 96.0538 323.461 96.3271ZM333.788 57.978C332.686 57.978 331.807 57.0845 331.697 55.9884C331.518 54.2033 331.095 52.7109 330.429 51.5111C329.518 49.7804 327.924 48.7329 325.647 48.3685C325.318 48.3028 325.037 48.1896 324.803 48.029C324.626 47.9073 324.498 47.726 324.433 47.5209C324.331 47.1968 324.28 46.7962 324.28 46.319C324.28 45.2259 324.69 44.6339 325.51 44.5428C329.518 43.6319 332.934 42.4477 335.758 40.9903C338.672 39.4418 340.859 38.2121 342.316 37.3012C343.318 36.6635 344.047 36.3447 344.502 36.3447C345.231 36.3447 345.595 36.7091 345.595 37.4378C345.595 38.4398 345.459 40.0338 345.185 42.22C345.003 44.4061 344.775 46.7745 344.502 49.325C344.32 51.8755 344.229 54.2438 344.229 56.4299V56.4299C344.229 57.2849 343.536 57.978 342.681 57.978H333.788Z" fill="white"/>
<rect x="331" y="10" width="14" height="14" rx="2" fill="white"/>
</svg>
